P2
10 10
255
255 255 255 255 255 255 255 255 255 255 255 255 255 255 255 255 255 
255 255 255 255 255 0 255 255 255 0 0 255 255 255 255 0 0 0 0 0 255 
255 255 255 255 255 0 0 0 0 255 255 255 255 255 255 0 0 0 0 255 255 
255 255 255 245 0 0 0 0 255 255 255 255 0 0 0 0 0 0 0 255 255 255 255 
255 255 0 255 255 255 255 255 255 255 255 255 255 255 255 255 255 255 