P2
10 10
255
0 0 0 0 0 0 0 0 0 0 85 85 85 85 85 85 85 85 85 85 0 0 0 0 0 0 0 0 0 0 
55 55 55 55 55 55 55 55 55 55 77 77 77 77 77 77 77 77 77 77 77 77 77 
77 77 77 77 77 77 77 114 114 114 114 114 114 114 114 114 114 0 0 0 0 
0 0 0 0 0 0 168 168 168 168 168 168 168 168 168 168 0 0 0 0 0 0 0 0 0 
0 