P2
10 10
255
255 255 255 255 255 255 255 255 255 255 255 189 46 189 255 189 85 85 
189 255 255 85 0 55 77 7 0 0 46 255 255 85 0 0 0 0 0 55 189 255 255 
189 7 0 0 0 0 77 255 255 255 255 77 0 0 0 0 77 255 255 223 168 76 0 0 
0 0 114 223 255 85 0 0 0 0 0 0 0 85 255 223 168 114 59 0 59 114 168 
223 255 255 255 255 255 255 255 255 255 255 255 