P2
10 10
255
0 0 0 0 0 0 0 0 0 0 0 255 255 255 255 255 255 255 39 255 0 255 0 204 
255 255 0 0 0 255 0 255 0 0 0 0 0 0 0 255 0 255 255 0 0 0 0 0 0 255 0 
255 255 0 0 0 0 0 0 255 2 255 255 0 0 0 0 0 0 255 0 0 0 0 0 0 0 0 0 
255 0 0 0 0 0 0 0 0 0 255 0 255 255 255 118 59 232 255 255 255 