P2
# Created by GIMP version 2.10.18 PNM plug-in
10 10
255
0
0
0
0
0
0
0
0
212
212
205
205
0
0
0
0
0
0
254
254
248
248
224
240
246
246
199
98
212
212
248
248
240
255
255
255
255
199
0
0
205
205
246
255
255
255
255
246
0
0
0
0
246
255
255
255
255
246
0
0
0
0
199
255
255
255
255
199
0
0
0
0
98
199
246
246
199
98
0
0
0
0
0
0
0
0
219
219
0
0
0
0
0
0
0
0
219
219
0
0
