P2
10 10
255
0 0 0 0 0 0 0 0 0 0 0 255 255 255 255 255 255 255 78 255 0 255 0 255 
255 255 0 0 0 255 0 255 0 0 0 0 0 0 0 255 0 255 255 0 0 0 0 0 0 255 0 
255 255 0 0 0 0 0 0 255 4 255 255 0 0 0 0 0 0 255 0 0 0 0 0 0 0 0 0 
255 0 0 0 0 0 0 0 0 0 255 0 255 255 255 236 118 255 255 255 255 